<?xml version="1.0" encoding="UTF-8"?>
<svg width="500px" height="300px" viewBox="0 0 500 300" version="1.1" xmlns="http://www.w3.org/2000/svg" xmlns:xlink="http://www.w3.org/1999/xlink">
    <!-- Generator: Sketch 45.2 (43514) - http://www.bohemiancoding.com/sketch -->
    <title>preview</title>
    <desc>Created with Sketch.</desc>
    <defs></defs>
    <g id="Page-1" stroke="none" stroke-width="1" fill="none" fill-rule="evenodd">
        <g id="preview">
            <rect id="rect4136" fill="#E2F5EE" fill-rule="nonzero" x="0" y="-9.99999997e-06" width="500" height="300"></rect>
            <rect id="rect4138" fill="#EDEDED" fill-rule="nonzero" x="1.42108547e-14" y="-9.99999997e-06" width="155" height="300"></rect>
            <g id="g4146" transform="translate(12.231850, 37.674120)" fill-rule="nonzero">
                <rect id="rect4142" fill-opacity="0.94117647" fill="#FFFFFF" x="0" y="0.86218" width="134" height="23.5"></rect>
                <rect id="rect4144" fill="#CECECE" x="0" y="21.86218" width="134" height="2.5"></rect>
            </g>
            <g id="g4168" transform="translate(11.963699, 76.674120)" fill-rule="nonzero">
                <rect id="rect4150" fill="#FFFFFF" x="0.268151" y="0.60913" width="20.506096" height="20.506096"></rect>
                <g id="g4162" transform="translate(29.316452, 2.389394)">
                    <rect id="rect4152" fill="#AFAFAF" x="0.476662" y="0.34106" width="60.280853" height="5.833631"></rect>
                    <rect id="rect4156" fill="#CFCFCF" x="74.89966" y="0.34106" width="30.05204" height="5.833631"></rect>
                    <rect id="rect4158" fill="#CFCFCF" x="0.476662" y="10.77087" width="36.592777" height="5.833631"></rect>
                    <rect id="rect4160" fill="#CFCFCF" x="47.676048" y="10.77087" width="57.27565" height="5.833631"></rect>
                </g>
            </g>
            <g id="use4176" transform="translate(11.963699, 122.174120)" fill-rule="nonzero">
                <g id="g4168">
                    <rect id="rect4150" fill="#FFFFFF" x="0.268151" y="0.60913" width="20.506096" height="20.506096"></rect>
                    <g id="g4162" transform="translate(29.316452, 2.389394)">
                        <rect id="rect4152" fill="#AFAFAF" x="0.476662" y="0.34106" width="60.280853" height="5.833631"></rect>
                        <rect id="rect4156" fill="#CFCFCF" x="74.89966" y="0.34106" width="30.05204" height="5.833631"></rect>
                        <rect id="rect4158" fill="#CFCFCF" x="0.476662" y="10.77087" width="36.592777" height="5.833631"></rect>
                        <rect id="rect4160" fill="#CFCFCF" x="47.676048" y="10.77087" width="57.27565" height="5.833631"></rect>
                    </g>
                </g>
            </g>
            <g id="use4178" transform="translate(11.963699, 167.174120)" fill-rule="nonzero">
                <g id="use4176" transform="translate(0.000000, 0.500000)">
                    <g id="g4168">
                        <rect id="rect4150" fill="#FFFFFF" x="0.268151" y="0.60913" width="20.506096" height="20.506096"></rect>
                        <g id="g4162" transform="translate(29.316452, 2.389394)">
                            <rect id="rect4152" fill="#AFAFAF" x="0.476662" y="0.34106" width="60.280853" height="5.833631"></rect>
                            <rect id="rect4156" fill="#CFCFCF" x="74.89966" y="0.34106" width="30.05204" height="5.833631"></rect>
                            <rect id="rect4158" fill="#CFCFCF" x="0.476662" y="10.77087" width="36.592777" height="5.833631"></rect>
                            <rect id="rect4160" fill="#CFCFCF" x="47.676048" y="10.77087" width="57.27565" height="5.833631"></rect>
                        </g>
                    </g>
                </g>
            </g>
            <g id="use4180" transform="translate(11.963699, 212.174120)" fill-rule="nonzero">
                <g id="use4178" transform="translate(0.000000, 0.500000)">
                    <g id="use4176" transform="translate(0.000000, 0.500000)">
                        <g id="g4168">
                            <rect id="rect4150" fill="#FFFFFF" x="0.268151" y="0.60913" width="20.506096" height="20.506096"></rect>
                            <g id="g4162" transform="translate(29.316452, 2.389394)">
                                <rect id="rect4152" fill="#AFAFAF" x="0.476662" y="0.34106" width="60.280853" height="5.833631"></rect>
                                <rect id="rect4156" fill="#CFCFCF" x="74.89966" y="0.34106" width="30.05204" height="5.833631"></rect>
                                <rect id="rect4158" fill="#CFCFCF" x="0.476662" y="10.77087" width="36.592777" height="5.833631"></rect>
                                <rect id="rect4160" fill="#CFCFCF" x="47.676048" y="10.77087" width="57.27565" height="5.833631"></rect>
                            </g>
                        </g>
                    </g>
                </g>
            </g>
            <g id="use4182" transform="translate(11.963699, 257.174120)" fill-rule="nonzero">
                <g id="use4180" transform="translate(0.000000, 0.500000)">
                    <g id="use4178" transform="translate(0.000000, 0.500000)">
                        <g id="use4176" transform="translate(0.000000, 0.500000)">
                            <g id="g4168">
                                <rect id="rect4150" fill="#FFFFFF" x="0.268151" y="0.60913" width="20.506096" height="20.506096"></rect>
                                <g id="g4162" transform="translate(29.316452, 2.389394)">
                                    <rect id="rect4152" fill="#AFAFAF" x="0.476662" y="0.34106" width="60.280853" height="5.833631"></rect>
                                    <rect id="rect4156" fill="#CFCFCF" x="74.89966" y="0.34106" width="30.05204" height="5.833631"></rect>
                                    <rect id="rect4158" fill="#CFCFCF" x="0.476662" y="10.77087" width="36.592777" height="5.833631"></rect>
                                    <rect id="rect4160" fill="#CFCFCF" x="47.676048" y="10.77087" width="57.27565" height="5.833631"></rect>
                                </g>
                            </g>
                        </g>
                    </g>
                </g>
            </g>
            <g id="g4224" transform="translate(164.463699, 78.674120)" fill-rule="nonzero" fill="#40B88F">
                <rect id="rect4152-0" x="0.26814" y="0.73047" width="60.280853" height="5.833631"></rect>
                <rect id="rect4207" x="80.26814" y="0.73047" width="60.280853" height="5.833631"></rect>
                <rect id="rect4209" x="160.26813" y="0.73047" width="60.280853" height="5.833631"></rect>
            </g>
            <rect id="rect4215" fill="#B0E5D2" fill-rule="nonzero" x="164.731839" y="97.28905" width="325.57675" height="108.89445"></rect>
            <path d="M16.0008983,26.7289114 C18.6392929,21.6214069 20.5022887,18.5847483 21.5898858,17.6189357 C22.6458651,16.6812004 24.5097443,17.6189357 25.0778546,17.6189357 C25.9759852,17.6189357 29.3658996,15.2752799 30.5580305,17.6189357 C31.0426541,18.571676 31.0426541,21.6083345 30.5580305,26.7289114 L34.1548109,8.50896 L25.0778546,12.0341034 L23.1676869,8.50896 L18.9677349,8.50896 L16.0008983,26.7289114 Z" id="path4217" fill="#40B88F"></path>
            <rect id="rect4140" fill="#40B88F" fill-rule="nonzero" x="154.999999" y="-9.99999997e-06" width="345" height="70"></rect>
            <rect id="rect4213" fill="#B0E5D2" fill-rule="nonzero" x="164.731839" y="11.16881" width="141.59813" height="13.258252"></rect>
        </g>
    </g>
</svg>